<svg id="Layer_3" data-name="Layer 3" xmlns="http://www.w3.org/2000/svg" viewBox="0 0 188.09 142.97"><defs><style>.cls-1{fill:none;stroke:#000;stroke-width:2px;}.cls-1,.cls-3{stroke-miterlimit:10;}.cls-2,.cls-3{fill:#445d5b;}.cls-3{stroke:#445d5b;stroke-width:3px;}</style></defs><title>Logo_caheo_xanh</title><path class="cls-1" d="M161.87,99.36" transform="translate(-51.66 -50.51)"/><path class="cls-2" d="M202.38,105a41.09,41.09,0,0,1,13.39,20.15,40.18,40.18,0,0,1,1.33,6c.07.51.15,1,.2,1.54l.11,1.55c.07,1,.16,2.07.13,3.11a42.62,42.62,0,0,1-1.91,12.31,40.46,40.46,0,0,1-2.3,5.82c-.87,1.85-1.84,3.7-2.89,5.48a67.74,67.74,0,0,1-26.7,25.5l-.07,0-.11,0a95.88,95.88,0,0,1-21.31,5.78,97,97,0,0,1-22.07.82,103.64,103.64,0,0,1-11-1.43,100.82,100.82,0,0,1-10.73-2.7A97,97,0,0,1,80.73,166.9a96.1,96.1,0,0,1-14.12-16.81,94.47,94.47,0,0,1-15-40.64A106.72,106.72,0,0,0,58,130.1a104.5,104.5,0,0,0,10.57,18.66c1.08,1.43,2.1,2.9,3.25,4.26l1.7,2.07,1.77,2c1.15,1.37,2.44,2.6,3.65,3.9s2.54,2.5,3.89,3.67a98.54,98.54,0,0,0,17.29,12.41l2.32,1.29,2.38,1.19c1.57.83,3.23,1.49,4.83,2.23a101.91,101.91,0,0,0,10,3.61,96.45,96.45,0,0,0,10.32,2.53,98.21,98.21,0,0,0,10.54,1.32l2.65.17,2.65.06c1.77.06,3.55.05,5.32,0a93.85,93.85,0,0,0,10.58-1,98,98,0,0,0,20.53-5.36l-.18.08a66,66,0,0,0,18.72-14.29,65.23,65.23,0,0,0,7.19-9.43c1.06-1.69,2-3.41,2.92-5.19a38.62,38.62,0,0,0,2.37-5.4,41.51,41.51,0,0,0,1.14-23.38A42,42,0,0,0,202.38,105Z" transform="translate(-51.66 -50.51)"/><path class="cls-3" d="M238.25,112.93a57.51,57.51,0,0,1-.4,7,60.42,60.42,0,0,1-4.27,16.47.41.41,0,0,0,0,.08,94.55,94.55,0,0,1-4.49,8.66c-1,1.75-2.09,3.45-3.21,5.13a95.59,95.59,0,0,1-41.95,34.63,67,67,0,0,0,21.73-18,66,66,0,0,0,7.36-11.7c.31-.59.6-1.19.88-1.8.14-.31.28-.62.4-.93a9.77,9.77,0,0,0,.39-.94,41.58,41.58,0,0,0,2.88-15.26c0-1.19,0-2.39-.15-3.56a41.47,41.47,0,0,0-14-27.66A40.15,40.15,0,0,0,176,94.67c-3.59.08-7.14.33-10.56.67-4.3.42-8.11.71-12.33,1.19h0c-1,.19-2.25.33-3.3.52h0c-1.07.15-2.1.35-3.12.53-2.34.4-4.51.9-6.72,1.29a5.83,5.83,0,0,0-.77.15,40.42,40.42,0,0,1-6.56.54,39.59,39.59,0,0,1-5.9-.44l-.26-.05a2.57,2.57,0,0,1-2.07-2.53,2.6,2.6,0,0,1,.84-1.91,2.55,2.55,0,0,1,.31-.24c.37-.28.76-.55,1.15-.81a76.56,76.56,0,0,1,17.4-9.07,32.86,32.86,0,0,1,4.54-16.21,33.32,33.32,0,0,1,8.12-9.25,32.68,32.68,0,0,1,13.85-6.39,30.8,30.8,0,0,1,4.44-.58h.34c.47,0,.94,0,1.42,0h.57l1.1,0a60.84,60.84,0,0,1,59.8,60.89Z" transform="translate(-51.66 -50.51)"/><path class="cls-1" d="M156.16,61.64" transform="translate(-51.66 -50.51)"/><path class="cls-1" d="M171.52,67.56" transform="translate(-51.66 -50.51)"/></svg>